<svg width="683" height="216" viewBox="0 0 683 216" fill="none" xmlns="http://www.w3.org/2000/svg">
<rect width="683" height="216" rx="8" fill="#1C231F"/>
<g filter="url(#filter0_d)">
<path d="M153.965 128.312C156.098 128.312 157.841 128.086 158.907 127.676C159.851 127.307 160.281 126.753 160.281 125.912C160.281 124.784 159.502 124.005 158.374 124.005C157.595 124.005 156.672 124.395 154.375 124.395H154.149C146.972 124.395 142.439 119.698 142.439 112.254V111.659C142.439 104.051 147.197 99.1904 154.621 99.1904H154.806C161.45 99.1904 166.208 103.641 166.208 109.875V110.306C166.208 114.059 165.183 116.54 163.645 116.54C162.804 116.54 162.168 115.822 162.168 114.879V107.004C162.168 105.486 161.143 104.44 159.666 104.44C158.169 104.44 157.103 105.507 157.103 107.004V107.291H156.959C156.446 105.322 154.683 104.133 152.242 104.133C148.51 104.133 146.11 106.696 146.11 110.654V113.505C146.11 117.668 148.489 120.252 152.345 120.252C154.908 120.252 156.713 119.104 157.287 117.114H157.472C158.087 119.021 160.322 120.272 163.152 120.272C167.746 120.272 170.699 116.499 170.699 110.634V109.67C170.699 101.2 164.096 95.1914 154.785 95.1914H154.621C144.531 95.1914 137.846 101.713 137.846 111.516V112.377C137.846 122.118 144.039 128.312 153.739 128.312H153.965ZM151.688 112.644V111.7C151.688 109.485 152.468 108.378 154.006 108.378C155.462 108.378 156.282 109.383 156.282 111.188V112.972C156.282 114.961 155.544 115.945 154.047 115.945C152.427 115.945 151.688 114.899 151.688 112.644ZM182.635 118.652V112.069C182.635 109.157 183.988 107.578 186.859 107.435C188.028 107.373 188.91 107.086 189.484 106.553C190.059 105.999 190.346 105.199 190.346 104.133C190.346 103.025 190.038 102.144 189.464 101.528C188.869 100.913 188.028 100.585 186.962 100.585C184.788 100.585 183.271 102 182.758 104.44H182.348C182.102 101.979 180.769 100.729 178.369 100.729C175.703 100.729 174.309 102.328 174.309 105.281V118.652C174.309 121.564 175.601 123.205 178.349 123.205C181.097 123.205 182.635 121.564 182.635 118.652ZM202.527 100.277C195.596 100.277 191.248 104.481 191.248 111.146V112.603C191.248 119.616 195.596 123.615 202.527 123.615C209.418 123.615 213.745 119.616 213.745 112.562V111.085C213.745 104.481 209.418 100.277 202.527 100.277ZM202.507 106.266C204.229 106.266 205.111 107.845 205.111 110.921V112.951C205.111 115.966 204.229 117.627 202.507 117.627C200.825 117.627 199.882 115.966 199.882 112.951V110.921C199.882 107.845 200.825 106.266 202.507 106.266ZM226.768 100.277C219.836 100.277 215.488 104.481 215.488 111.146V112.603C215.488 119.616 219.836 123.615 226.768 123.615C233.658 123.615 237.985 119.616 237.985 112.562V111.085C237.985 104.481 233.658 100.277 226.768 100.277ZM226.747 106.266C228.47 106.266 229.352 107.845 229.352 110.921V112.951C229.352 115.966 228.47 117.627 226.747 117.627C225.065 117.627 224.122 115.966 224.122 112.951V110.921C224.122 107.845 225.065 106.266 226.747 106.266ZM275.043 118.652V107.783C275.043 103.374 272.377 100.585 268.193 100.585C264.974 100.585 262.41 102.308 261.692 104.769H261.282C260.626 102.164 258.452 100.585 255.314 100.585C252.3 100.585 249.818 102.308 249.203 104.81H248.793C248.629 102.246 247.152 100.729 244.794 100.729C242.312 100.729 240.754 102.41 240.754 105.117V118.652C240.754 121.646 242.23 123.205 244.938 123.205C247.624 123.205 249.08 121.646 249.08 118.652V110.552C249.08 108.378 249.941 107.168 251.521 107.168C253.079 107.168 253.94 108.378 253.94 110.511V118.652C253.94 121.646 255.294 123.205 257.919 123.205C260.523 123.205 261.856 121.646 261.856 118.652V110.552C261.856 108.378 262.697 107.168 264.276 107.168C265.835 107.168 266.717 108.378 266.717 110.511V118.652C266.717 121.646 268.173 123.205 270.88 123.205C273.566 123.205 275.043 121.646 275.043 118.652ZM278.201 118.673C278.201 120.211 279.186 121.482 281.011 122.364C282.672 123.164 284.969 123.615 287.635 123.615C294.32 123.615 298.196 120.703 298.196 115.884C298.196 112.356 296.248 110.203 292.167 109.444L288.414 108.747C286.979 108.48 286.384 108.091 286.384 107.332C286.384 106.553 287.081 105.896 288.25 105.896C288.968 105.896 289.85 106.061 291.613 106.696C292.864 107.147 293.767 107.332 294.443 107.332C296.146 107.332 297.335 106.368 297.335 104.769C297.335 103.21 296.248 101.979 294.238 101.2C292.639 100.585 290.711 100.277 288.722 100.277C282.508 100.277 278.468 103.312 278.468 107.824C278.468 111.331 280.457 113.443 284.969 114.346L287.409 114.838C289.501 115.269 290.28 115.822 290.28 116.643C290.28 117.442 289.48 117.914 288.086 117.914C286.958 117.914 285.933 117.606 283.943 116.786C282.651 116.253 281.934 116.007 281.072 116.007C279.37 116.007 278.201 117.094 278.201 118.673ZM300.493 112.89C300.493 119.616 305.005 123.615 312.347 123.615C315.033 123.615 317.289 123.144 318.868 122.303C320.488 121.441 321.411 120.272 321.411 118.796C321.411 117.114 320.365 116.109 318.704 116.109C317.453 116.109 316.899 116.622 315.956 117.053C315.279 117.36 314.418 117.606 312.962 117.606C310.48 117.606 309.045 116.212 308.983 114.284V113.669H318.089C320.919 113.669 322.067 112.623 322.067 110.019C322.067 104.502 317.679 100.277 311.506 100.277C304.82 100.277 300.493 104.502 300.493 111.044V112.89ZM308.983 109.362V109.321C308.983 107.496 309.927 106.266 311.69 106.266C313.27 106.266 314.315 107.496 314.315 109.321V109.362H308.983ZM333.408 118.652V112.069C333.408 109.157 334.762 107.578 337.633 107.435C338.802 107.373 339.684 107.086 340.258 106.553C340.832 105.999 341.119 105.199 341.119 104.133C341.119 103.025 340.812 102.144 340.237 101.528C339.643 100.913 338.802 100.585 337.735 100.585C335.562 100.585 334.044 102 333.531 104.44H333.121C332.875 101.979 331.542 100.729 329.143 100.729C326.477 100.729 325.082 102.328 325.082 105.281V118.652C325.082 121.564 326.374 123.205 329.122 123.205C331.87 123.205 333.408 121.564 333.408 118.652ZM346.226 116.171C348.092 121.934 349.445 123.205 353.403 123.205C357.136 123.205 358.428 121.831 360.438 116.171L363.924 106.368C364.17 105.691 364.272 105.179 364.272 104.584C364.272 102.267 362.632 100.729 360.191 100.729C358.079 100.729 356.726 102 356.172 104.522L353.588 116.089H353.26L351.106 104.481C350.676 102.062 349.22 100.729 346.984 100.729C344.441 100.729 342.76 102.287 342.76 104.646C342.76 105.199 342.862 105.732 343.047 106.327L346.226 116.171ZM367.328 95.1914C367.328 97.4062 369.092 98.9648 371.614 98.9648C374.116 98.9648 375.88 97.4062 375.88 95.1914C375.88 92.9971 374.116 91.4385 371.614 91.4385C369.092 91.4385 367.328 92.9971 367.328 95.1914ZM375.777 118.652V105.281C375.777 102.328 374.321 100.729 371.614 100.729C368.907 100.729 367.451 102.328 367.451 105.281V118.652C367.451 121.605 368.907 123.205 371.614 123.205C374.321 123.205 375.777 121.605 375.777 118.652ZM379.079 112.705C379.079 119.883 383.406 123.615 390.194 123.615C393.065 123.615 395.383 122.918 397.003 121.872C398.603 120.847 399.484 119.452 399.484 118.078C399.484 116.355 398.418 115.084 396.49 115.084C395.321 115.084 394.645 115.576 393.886 116.068C393.086 116.581 392.307 117.176 390.974 117.176C388.349 117.176 387.713 115.289 387.713 112.295V111.167C387.713 108.46 388.718 106.717 390.892 106.717C392.04 106.717 392.799 107.188 393.537 107.701C394.316 108.214 395.096 108.768 396.285 108.768C398.131 108.768 399.423 107.435 399.423 105.671C399.423 104.399 398.685 103.23 397.454 102.308C395.793 101.077 393.209 100.277 390.235 100.277C383.058 100.277 379.079 104.604 379.079 110.716V112.705ZM402.048 112.89C402.048 119.616 406.56 123.615 413.901 123.615C416.588 123.615 418.844 123.144 420.423 122.303C422.043 121.441 422.966 120.272 422.966 118.796C422.966 117.114 421.92 116.109 420.259 116.109C419.008 116.109 418.454 116.622 417.511 117.053C416.834 117.36 415.973 117.606 414.517 117.606C412.035 117.606 410.6 116.212 410.538 114.284V113.669H419.644C422.474 113.669 423.622 112.623 423.622 110.019C423.622 104.502 419.233 100.277 413.061 100.277C406.375 100.277 402.048 104.502 402.048 111.044V112.89ZM410.538 109.362V109.321C410.538 107.496 411.481 106.266 413.245 106.266C414.824 106.266 415.87 107.496 415.87 109.321V109.362H410.538ZM432.461 127.04L440.582 98.2061C440.664 97.9395 440.767 97.4883 440.787 96.9756C440.869 95.0068 439.311 93.3252 437.239 93.3252C435.558 93.3252 434.163 94.3301 433.691 96.0117L425.57 124.846C425.488 125.112 425.386 125.563 425.365 126.076C425.283 128.045 426.842 129.727 428.913 129.727C430.595 129.727 431.989 128.722 432.461 127.04ZM451.779 118.652V112.069C451.779 109.157 453.133 107.578 456.004 107.435C457.173 107.373 458.055 107.086 458.629 106.553C459.203 105.999 459.49 105.199 459.49 104.133C459.49 103.025 459.183 102.144 458.608 101.528C458.014 100.913 457.173 100.585 456.106 100.585C453.933 100.585 452.415 102 451.902 104.44H451.492C451.246 101.979 449.913 100.729 447.514 100.729C444.848 100.729 443.453 102.328 443.453 105.281V118.652C443.453 121.564 444.745 123.205 447.493 123.205C450.241 123.205 451.779 121.564 451.779 118.652ZM460.577 112.89C460.577 119.616 465.089 123.615 472.431 123.615C475.117 123.615 477.373 123.144 478.952 122.303C480.572 121.441 481.495 120.272 481.495 118.796C481.495 117.114 480.449 116.109 478.788 116.109C477.537 116.109 476.983 116.622 476.04 117.053C475.363 117.36 474.502 117.606 473.046 117.606C470.564 117.606 469.129 116.212 469.067 114.284V113.669H478.173C481.003 113.669 482.151 112.623 482.151 110.019C482.151 104.502 477.763 100.277 471.59 100.277C464.904 100.277 460.577 104.502 460.577 111.044V112.89ZM469.067 109.362V109.321C469.067 107.496 470.011 106.266 471.774 106.266C473.354 106.266 474.399 107.496 474.399 109.321V109.362H469.067ZM492.323 115.863C492.323 114.694 493.328 113.915 494.846 113.915H496.979V115.884C496.979 116.95 495.912 117.812 494.579 117.812C493.287 117.812 492.323 116.991 492.323 115.863ZM496.958 120.416H497.368C497.758 122.221 499.214 123.205 501.265 123.205C503.849 123.205 505.305 121.688 505.305 118.857V108.665C505.305 103.559 501.572 100.585 495.071 100.585C492.282 100.585 490.129 101.016 488.57 101.713C486.355 102.656 485.412 104.092 485.412 105.486C485.412 107.024 486.458 108.193 488.222 108.193C489.452 108.193 490.252 107.906 491.031 107.558C492.118 107.065 493.164 106.471 494.518 106.471C496.035 106.471 496.979 107.209 496.979 108.521V109.813H492.631C487.381 109.834 484.202 112.377 484.202 116.561C484.202 120.519 487.135 123.205 491.462 123.205C494.005 123.205 496.097 122.139 496.958 120.416ZM508.032 112.705C508.032 119.883 512.359 123.615 519.147 123.615C522.019 123.615 524.336 122.918 525.956 121.872C527.556 120.847 528.438 119.452 528.438 118.078C528.438 116.355 527.371 115.084 525.443 115.084C524.274 115.084 523.598 115.576 522.839 116.068C522.039 116.581 521.26 117.176 519.927 117.176C517.302 117.176 516.666 115.289 516.666 112.295V111.167C516.666 108.46 517.671 106.717 519.845 106.717C520.993 106.717 521.752 107.188 522.49 107.701C523.27 108.214 524.049 108.768 525.238 108.768C527.084 108.768 528.376 107.435 528.376 105.671C528.376 104.399 527.638 103.23 526.407 102.308C524.746 101.077 522.162 100.277 519.188 100.277C512.011 100.277 508.032 104.604 508.032 110.716V112.705ZM533.934 117.032C533.934 121.421 536.374 123.615 541.316 123.615C543.244 123.615 544.823 123.185 545.89 122.385C546.812 121.688 547.325 120.724 547.325 119.575C547.325 118.242 546.505 117.381 545.356 117.381C544.68 117.381 544.352 117.504 543.798 117.504C542.731 117.504 542.301 116.868 542.301 115.412V107.455H543.244C545.397 107.455 546.587 106.327 546.587 104.379C546.587 102.431 545.397 101.303 543.244 101.303H542.178V99.5801C542.178 96.75 540.783 95.2119 538.199 95.2119C535.615 95.2119 534.2 96.75 534.2 99.5801V101.303H533.564C531.411 101.303 530.222 102.431 530.222 104.379C530.222 106.327 531.411 107.455 533.564 107.455H533.934V117.032Z" fill="white"/>
</g>
<defs>
<filter id="filter0_d" x="137.846" y="91.4385" width="409.479" height="42.2881" filterUnits="userSpaceOnUse" color-interpolation-filters="sRGB">
<feFlood flood-opacity="0" result="BackgroundImageFix"/>
<feColorMatrix in="SourceAlpha" type="matrix" values="0 0 0 0 0 0 0 0 0 0 0 0 0 0 0 0 0 0 127 0"/>
<feOffset dy="4"/>
<feColorMatrix type="matrix" values="0 0 0 0 0.223529 0 0 0 0 0.585177 0 0 0 0 0.847059 0 0 0 1 0"/>
<feBlend mode="normal" in2="BackgroundImageFix" result="effect1_dropShadow"/>
<feBlend mode="normal" in="SourceGraphic" in2="effect1_dropShadow" result="shape"/>
</filter>
</defs>
</svg>
